<?xml version="1.0" encoding="UTF-8"?>
<svg id="Layer_2" data-name="Layer 2" xmlns="http://www.w3.org/2000/svg" viewBox="0 0 28.37 28.37">
  <defs>
    <style>
      .cls-1 {
        fill-rule: evenodd;
      }
    </style>
  </defs>
  <g id="Layer_1-2" data-name="Layer 1">
    <path class="cls-1" d="M14.19,0c7.83,0,14.19,6.59,14.19,14.73,0,2.53-.62,4.92-1.7,7-1.52-3.48-3.86-6.2-7.01-8.17-3.23-2.33-6.99-3.67-11.3-4.02,2.63,3.45,3.34,8,2.11,13.63.37.53,1.45,1.96,3.22,4.27-1.91-.99-3.22-1.63-3.93-1.93-.27.81-.58,1.87-.92,2.88C3.66,26.18,0,20.9,0,14.73,0,6.59,6.35,0,14.19,0Z"/>
  </g>
</svg>